<svg width="13" height="13" xmlns="http://www.w3.org/2000/svg" version="1.1" enable-background="new 0 0 100 43.891" xml:space="preserve">
 <g class="layer">
  <title>Layer 1</title>
  <g fill="#9fa4a8" id="svg_2">
   <path fill="#9fa4a8" d="m12.45311,0.58264l-0.33821,0.21334c-0.01999,0.01271 -2.06516,1.2784 -5.65985,1.2784c-3.59405,0 -5.61532,-1.26485 -5.63531,-1.27813l-0.3391,-0.21362l0,11.48154l0.32884,-0.17908c0.02352,-0.01382 2.38731,-1.28365 5.64569,-1.28365c3.25394,0 5.64644,1.27066 5.66997,1.28392l0.32821,0.17686l-0.00025,-11.4796l0,0.00002zm-0.52907,10.01909c-0.4337,-0.19842 -1.27265,-0.53999 -2.39654,-0.80114l-0.39335,-1.35854l0.38286,0l-0.76533,-2.86879l-0.76558,2.86879l0.35174,0l-0.31708,1.09546c-0.21148,-0.0246 -0.42826,-0.04533 -0.65099,-0.06024l-0.43863,-1.51468l0.50238,0l-1.00425,-3.76583l-1.00412,3.76583l0.4614,0l-0.4404,1.52104c-0.21286,0.0163 -0.42092,0.03759 -0.62291,0.06218l-0.31949,-1.10402l0.38261,0l-0.76482,-2.86879l-0.76545,2.86852l0.35149,0l-0.39866,1.37789c-1.07584,0.25784 -1.87874,0.58669 -2.2994,0.78069l0,-8.50662c0.72372,0.36672 2.58272,1.13635 5.44521,1.13635c2.86793,0 4.74173,-0.77185 5.46911,-1.13801l0,8.50939l0.00025,0l0,0.00055l-0.00004,-0.00001z" id="svg_3"/>
   <circle fill="#9fa4a8" cx="10.41729" cy="4.99514" r="0.52932" id="svg_4"/>
  </g>
 </g>
</svg>