<svg width="16" height="16" xmlns="http://www.w3.org/2000/svg">
 <g>
   <g transform="matrix(1.2502, 0, 0, 1.2502, 374.652, -519.193)" id="svg_38">
    <path d="m-296.554291,417.962738c0.5,-0.600006 1.200012,-1 2,-1.200012c-0.299988,0.300018 -0.5,0.600006 -0.700012,1.100006c0.100006,0 0.300018,0 0.5,0c0.300018,-0.700012 0.800018,-1.100006 1.300018,-1.200012c0.100006,0 0.199982,0 0.299988,0c0.100006,0 0.200012,0 0.200012,0c0.5,0.100006 1,0.600006 1.299988,1.200012c0.100006,0 0.300018,0 0.399994,0c-0.199982,-0.399994 -0.399994,-0.799988 -0.699982,-1.100006c0.799988,0.200012 1.5,0.700012 2,1.200012c0.299988,0 0.5,0.100006 0.799988,0.100006c-0.899994,-1.100006 -2.299988,-1.900024 -3.799988,-2c-0.100006,0 -0.200012,0 -0.300018,0s-0.199982,0 -0.299988,0c-1.5,0.099976 -2.899994,0.799988 -3.799988,2c0.199982,0 0.499969,-0.100006 0.799988,-0.100006z" fill="#527AB5" id="svg_40"/>
    <path d="m-289.954315,424.962738c-0.600006,0.600006 -1.299988,1 -2.100006,1.199982c0.300018,-0.299988 0.5,-0.599976 0.700012,-1.099976c-0.100006,0 -0.300018,0 -0.399994,0c-0.400024,0.699982 -0.900024,1.199982 -1.5,1.199982s-1.100006,-0.399994 -1.5,-1.199982c-0.200012,0 -0.300018,0 -0.5,0c0.199982,0.399994 0.399994,0.799988 0.699982,1c-0.799988,-0.200012 -1.5,-0.600006 -2,-1.200012c-0.299988,0 -0.600006,-0.100006 -0.799988,-0.100006c1,1.200012 2.399994,2 4.100006,2s3.099976,-0.799988 4.099976,-2c-0.199982,0.100006 -0.499969,0.200012 -0.799988,0.200012z" fill="#527AB5" id="svg_39"/>
   </g>
   <path d="m14.652493,11.343401c0,0 -2.750447,0.875149 -6.751053,0.875149c-3.875615,0 -6.751052,-0.875149 -6.751052,-0.875149s-1.125208,-1.500255 -1.125208,-3.625563c0,-2.000319 1.125208,-3.750587 1.125208,-3.750587s2.750409,-0.750126 6.751052,-0.750126c4.000606,0 6.751053,0.750126 6.751053,0.750126s1.250194,1.875293 1.250194,3.750587c0,2.250374 -1.250194,3.625563 -1.250194,3.625563z" fill="#4EAEE1" id="svg_37"/>
   <ellipse transform="matrix(1.2502, 0, 0, 1.2502, 374.652, -519.193)" ry="1.1" rx="1.1" cy="420.262769" cx="-289.654279" fill="#FED049" id="svg_36"/>
   <path d="m13.845618,10.072809c0,0 -0.500072,0.25002 -0.875154,0.25002s-0.750085,-0.25002 -0.750085,-0.25002l-3.000503,-3.000461c0,0 -0.375043,-0.375083 -0.875114,-0.375083c-0.375082,0 -0.750125,0.375083 -0.750125,0.375083l-5.125813,4.500671c1.250197,0.250058 3.125492,0.625101 5.500857,0.625101c4.000642,0 6.75109,-0.875113 6.75109,-0.875113s1.00014,-1.125172 1.12517,-3.000463l-2.000322,1.750265z" fill="#0B743B" id="svg_35"/>
   <path d="m4.416869,5.774303c0,0 -0.375043,-0.625095 -1.250197,-0.750122c-0.875153,0 -1.875295,1.750267 -2.62542,1.750267c-0.125028,0 -0.250015,0 -0.375044,-0.124992c-0.125026,0.375043 -0.125026,0.750088 -0.125026,1.12517c0,2.250337 1.125168,3.625558 1.125168,3.625558s2.875475,0.875152 6.751051,0.875152c1.250197,0 2.250376,-0.125026 3.250518,-0.250051l-6.751051,-6.250982z" fill="#199F5A" id="svg_34"/>
   <path d="m13.918328,3.842221c-0.250054,0.625101 -1.750267,3.750592 -4.75073,5.500857c-3.500572,2.000323 -8.126276,1.750266 -8.126276,1.750266l0,0c0.124989,0.250057 0.124989,0.250057 0.124989,0.250057s2.875474,0.875149 6.75109,0.875149c4.000605,0 6.751052,-0.875149 6.751052,-0.875149s1.250196,-1.375227 1.250196,-3.625563c0,-1.875293 -1.250196,-3.750587 -1.250196,-3.750587s-0.375045,0 -0.750126,-0.125031z" opacity="0.14" id="svg_33"/>
 </g>
</svg>